<?xml version="1.0" encoding="UTF-8"?>
<svg id="Layer_1" xmlns="http://www.w3.org/2000/svg" viewBox="0 0 740 320">
  <defs>
    <style>
      .cls-1 {
        fill: #fff;
      }
    </style>
  </defs>
  <path class="cls-1" d="M306.94,166.74c6.49-6.22,9.74-14.54,9.74-24.94s-3.25-18.88-9.74-25.1c-6.49-6.22-15.31-9.33-26.47-9.33h-45.54v112.64h18.02v-43.93h20.97l23.12,43.93h19.95v-1.29l-23.53-44.35c5.25-1.52,9.75-4.06,13.47-7.63ZM279.02,159.18h-26.07v-34.92h26.07c6.01,0,10.65,1.56,13.92,4.67,3.27,3.11,4.91,7.4,4.91,12.87s-1.64,9.6-4.91,12.71c-3.27,3.11-7.91,4.67-13.92,4.67Z"/>
  <polygon class="cls-1" points="374.37 195.24 340.98 107.37 321.51 107.37 321.51 108.65 365.12 220.01 383.62 220.01 427.23 108.65 427.23 107.37 407.76 107.37 374.37 195.24"/>
  <polyline class="cls-1" points="523.3 107.37 437.53 107.37 437.53 125.07 471.17 125.07 471.17 220.01 489.67 220.01 489.67 125.07 523.3 125.07 523.3 107.37"/>
  <polygon class="cls-1" points="605.86 107.62 579.87 157.28 553.88 107.62 533.6 107.62 533.6 108.91 570.45 176.34 570.45 220.27 588.96 220.27 588.96 176.34 625.81 108.91 625.81 107.62 605.86 107.62"/>
  <path class="cls-1" d="M132.44,155.63c0-18.01,14.6-32.61,32.61-32.61h1.33c13.62.24,25.9,8.88,30.7,21.66l17.36-6.52c-7.57-20.15-27.12-33.69-48.65-33.69v14.76h-.74c-18.01,0-32.61-14.6-32.61-32.61h0s-3.79,0-3.79,0h0c0,18.01-14.6,32.61-32.61,32.61h-1.77v3.79h1.77c17.4,0,31.61,13.63,32.56,30.79v2.61h0s-14.75,0-14.75,0v13.5c0,28.65,23.31,51.95,51.95,51.95,13.46,0,25.73-5.14,34.97-13.56v11.22h18.55v-56.62h-50.98v18.55h28.83c-4.71,12.76-16.98,21.88-31.35,21.88-18.42,0-33.41-14.99-33.41-33.41v-12.45"/>
</svg>