<svg xmlns="http://www.w3.org/2000/svg" width="288.129" height="28.414" viewBox="0 0 288.129 28.414">
  <g id="Grupo_62198" data-name="Grupo 62198" transform="translate(-2829.06 1014.606)">
    <path id="Trazado_42502" data-name="Trazado 42502" d="M80.758,16.829a2.885,2.885,0,0,0,2.94-2.911,2.948,2.948,0,0,0-2.919-2.77h-4.24v5.681ZM69,4.4H81.1c5.918,0,10.138,3.883,10.138,9.523a8.848,8.848,0,0,1-4.8,8.067l5.478,9.907H83.3l-4.24-8.714H76.539v8.714H69Z" transform="translate(2821.796 -1019)" fill="#fff" fill-rule="evenodd"/>
    <path id="Trazado_42503" data-name="Trazado 42503" d="M117.615,18.6a7.491,7.491,0,0,0-14.98,0,7.491,7.491,0,0,0,14.98,0M95,18.582c0-7.88,6.759-14.188,15.123-14.188,8.323,0,15.123,6.308,15.123,14.188,0,7.86-6.8,14.226-15.123,14.226C101.76,32.808,95,26.442,95,18.582" transform="translate(2819.627 -1019)" fill="#fff" fill-rule="evenodd"/>
    <path id="Trazado_42504" data-name="Trazado 42504" d="M136.365,21.56,126,4.395h8.843l5.374,10.412,5.293-10.412h8.9L143.99,21.519l.02,10.373h-7.646Z" transform="translate(2817.04 -1019)" fill="#fff" fill-rule="evenodd"/>
    <path id="Trazado_42505" data-name="Trazado 42505" d="M155,18.582A14.4,14.4,0,0,1,169.656,4.394c5.691,0,12.68,3.464,13.759,11.939h-7.668c-.838-3.8-3.355-5.094-6.31-5.094-3.734,0-6.929,2.607-6.929,7.362,0,4.935,3.2,7.362,6.929,7.362,2.935,0,5.472-1.293,6.268-5.093h7.688c-1.058,8.476-7.967,11.938-13.738,11.938A14.448,14.448,0,0,1,155,18.582" transform="translate(2814.621 -1019)" fill="#fff" fill-rule="evenodd"/>
    <path id="Trazado_42506" data-name="Trazado 42506" d="M190,4.395h19.982v6.733H197.671v3.66h10.5v6.328h-10.5v4.024h12.494v6.752H190Z" transform="translate(2811.701 -1019)" fill="#fff" fill-rule="evenodd"/>
    <path id="Trazado_42507" data-name="Trazado 42507" d="M224,18.582A14.366,14.366,0,0,1,238.583,4.394c5.663,0,12.674,3.7,13.689,10.348h-7.63a6.722,6.722,0,0,0-6.278-3.5c-3.715,0-6.894,2.607-6.894,7.362,0,4.935,3.18,7.362,6.894,7.362,2.563,0,4.848-.855,5.622-3.1h-5.9V17.011h14.325c.158,10.087-5.107,15.8-14.027,15.8A14.365,14.365,0,0,1,224,18.582" transform="translate(2808.864 -1019)" fill="#fff" fill-rule="evenodd"/>
    <path id="Trazado_42508" data-name="Trazado 42508" d="M259,4.395h19.982v6.733H266.671v3.66h10.5v6.328h-10.5v4.024h12.494v6.752H259Z" transform="translate(2805.944 -1019)" fill="#fff" fill-rule="evenodd"/>
    <path id="Trazado_42509" data-name="Trazado 42509" d="M305.615,18.6a7.492,7.492,0,0,0-14.981,0,7.492,7.492,0,0,0,14.981,0M283,18.582c0-7.88,6.759-14.188,15.123-14.188,8.323,0,15.123,6.308,15.123,14.188,0,7.86-6.8,14.226-15.123,14.226C289.76,32.808,283,26.442,283,18.582" transform="translate(2803.942 -1019)" fill="#fff" fill-rule="evenodd"/>
    <path id="Trazado_42516" data-name="Trazado 42516" d="M30.787,3.9a9.9,9.9,0,0,1,1.058,2.731,6.252,6.252,0,0,1,1.05-.088,6.688,6.688,0,0,1,5.728,3.367h7.09A13.586,13.586,0,0,0,32.7,0a13.319,13.319,0,0,0-4.624.823A9.646,9.646,0,0,1,30.787,3.9" transform="translate(2821.629 -1014.605)" fill="#bee84c" fill-rule="evenodd"/>
    <path id="Trazado_42517" data-name="Trazado 42517" d="M46.92,16.484H34.841V22.03h4.053s-1.706,4.535-7.922,4.191l3.093,5.638A13.738,13.738,0,0,0,46.92,16.484" transform="translate(2820.862 -1018.968)" fill="#bee84c" fill-rule="evenodd"/>
    <path id="Trazado_42518" data-name="Trazado 42518" d="M22.407,9.51C22.407,3.9,18.173.041,12.234.041H.094L0,27.477H7.564l.1-8.76h2.528l4.16,8.76h8.647l-5.4-9.945A8.788,8.788,0,0,0,22.407,9.51m-10.514,2.9H7.66V6.756h4.252a2.947,2.947,0,0,1,2.93,2.754,2.882,2.882,0,0,1-2.95,2.9" transform="translate(2829.06 -1014.616)" fill="#bee84c" fill-rule="evenodd"/>
  </g>
</svg>
